<svg version="1" xmlns="http://www.w3.org/2000/svg" width="933.333" height="933.333" viewBox="0 0 700.000000 700.000000"><path d="M443.8 17.5c-.2.2-2.8.6-5.8.9-10.2 1.1-12.5 1.8-20.5 5.9-7.2 3.8-18.8 13.8-24.3 21-4 5.3-8.4 16.5-9.7 24.8-1.4 8.8-1.6 12.6-1.9 32.9-.4 26.8 1.1 42 6.6 65.3 2.3 9.9 4.3 12.1 11.9 13.4 4.4.7 5.3.7 11.7.4l3.2-.1v-9.5c0-7.8.3-9.5 1.5-9.5 1.3 0 1.5 2.1 1.5 12.5 0 11.2-.2 12.5-1.7 12.6-4 .1-10.6 1.2-17.2 2.8-4.2 1.1-7.4 1.4-7.9.9-.5-.5-2.5-.8-4.3-.6-2.6.2-3.9 1.1-5.4 3.6l-2 3.3-8.5-.6c-4.7-.3-9.8-.8-11.5-1-1.6-.2-7-.9-12-1.5-12.6-1.6-14.9-1.9-24-3.7-7.3-1.4-8.4-1.9-12.8-6.2-6.8-6.5-13.5-16.9-21.6-33.4-8.2-16.8-10.6-22-15.7-34.7-2.1-5.2-4.4-10.6-5-11.9-.7-1.4-1-3.2-.5-4 1.3-2.8.4-13.8-2.3-28.1-2.2-11.8-3.4-14.2-7.9-16.3-4.2-2-7.4-1.5-10.6 1.7-2.7 2.7-3.5 8.3-2.1 14 .5 1.7 1.2 5.5 1.5 8.5.7 5 .6 5.3-1.1 4.7-4.4-1.8-6.2-1.5-8.8 1-4.5 4.6-3.3 8.3 6 18.3 3.8 4 4.7 6 8 17.6 9 31.8 22.6 66 31.6 79.4 3.1 4.7 14.5 16.1 16 16.1.4 0 3.6 1.3 7 2.9 9.9 4.7 55.9 17.5 64.5 18 .9.1 1.2 1.9 1.1 5.8-.2 6.8.5 11.1 2.7 17.2.8 2.5 1.7 5.6 2 7 .3 1.4 1.1 5.2 2 8.3.8 3.2 1.7 7 2 8.5.2 1.6.9 5 1.4 7.6 1.1 6.1 1.1 18.2 0 22.2-2.1 7.1-31.4 19.5-52.3 22.1-2.3.3-4.7.7-5.5 1-1.5.5-17.2 1.1-46.6 1.9-9.3.2-18.1.6-19.5.9-3.7.9-8.4 3.3-10.4 5.5-2.6 2.9-3 10.5-.8 18.7l1.8 7.2-5.1 1.5c-2.7.8-16.2 4.8-30 8.7-13.7 4-34.9 10.1-46.9 13.6-16.2 4.7-22.3 6.1-23.3 5.3-1.4-1.2-11.7-1.4-20.3-.4-10.9 1.2-13.6 1.5-20 2-9.4.8-13.3 2.1-17.1 5.8-4.4 4.2-5.8 6.8-6.5 12.1-1.3 9 3.9 16.5 13.1 18.7 4.1 1 22.8 1.9 40.4 1.9 4.1 0 11.9-4.2 14.5-7.7 1.9-2.6 1.9-2.6 0-4.1-1.8-1.3-1.6-1.4 1.6-.8 15.4 2.6 56.5 2.7 70.5.1 12.4-2.2 19.6-4 30-7.4 11-3.6 12.8-3.9 21-3.6 5 .2 11.5.8 14.5 1.5 4.2.9 20.9 2 30.2 2 1.7 0 7.6 7.1 10.1 12.2 2.9 5.8 5.2 14.8 6.2 24.3 1.1 10.7 1.3 11.9 2 17 2.9 18.8 15.2 26.9 41 26.9 14.1-.1 19.6-1.1 28.3-5.6 5-2.5 11.8-9.7 15.8-16.6 4.6-8 9.5-14.2 12.4-15.7l2.7-1.4 1.7 6.7c.9 3.7 2.5 10.1 3.7 14.2 1.1 4.1 2.9 10.6 3.9 14.5 1 3.8 4.6 17.3 8 30 3.4 12.6 6.3 23.7 6.5 24.5.2.8 3.5 13.2 7.3 27.5 3.9 14.3 8.4 31.4 10.1 38 1.7 6.6 3.6 13 4.1 14.2.7 1.7.2 3.1-2 6.5-1.9 2.8-3.1 6.3-3.5 9.4-3.4 31.8-1.8 40.7 8.1 45.5 7.8 3.7 16.2 2.6 22-2.9 6-5.6 7.9-12.4 6.3-22.3-.4-2.6-.9-7.8-1-11.6-.4-9.9-2.8-19.3-5.1-19.3-.4 0-.9 1.7-.9 3.7-.1 2.1-.3 3.1-.5 2.3-.3-.8.2-8.1.9-16.3 1.8-19.7 1.3-55.6-.8-63.7-.2-.8-.6-3.8-1-6.5-.3-2.8-2.2-11.5-4.1-19.4-4.1-16.3-4.1-20.2-.5-37.7 1.1-5.6 2.2-11.7 2.3-13.7l.3-3.5 3.5 2.1c1.9 1.1 4.7 2.9 6.2 3.9 1.5 1.1 5.8 3.3 9.5 5.1 5.8 2.7 8 3.1 14.8 3.2 7.2 0 8.8-.4 14.6-3.3 7.6-3.9 17.9-13.3 21-19.4 3.9-7.5 3.5-22.1-1-36.8-3-9.5-11.5-27.2-19.8-40.8-5.4-8.9-20.2-31.2-21.7-32.8-.6-.6-2.7-3.4-4.6-6.2-1.9-2.8-3.8-5.2-4.1-5.2-.4 0-1 1.5-1.3 3.4-.4 1.9-1.6 4.6-2.8 6.1-2.2 2.9-6.7 5.1-7.7 3.8-.4-.4-.5-.7-.2-.6.2.1 1.6-.4 3.2-1.3 4.4-2.2 4.8-3.4 6.4-19.2.3-3 .7-5.7.9-6 .2-.4.7-2.3 1-4.2 1-6.6 2.8-14.5 3.7-16.2.5-.9 7.3-6.9 15.1-13.4 7.9-6.5 14.5-12.1 14.8-12.4.3-.3 3-2.5 6-5s5.7-4.7 6-5c.3-.3 3.2-2.7 6.5-5.5 8.7-7.2 10.3-9.1 11.1-13 1.1-6.1.8-6.5-24.5-25.7-9.5-7.3-21.9-16.9-27.5-21.3-15.4-12.3-27.9-21.3-31.1-22.6-1.7-.6-4.8-1.4-7-1.6-2.2-.3-4.2-.9-4.5-1.4-1.1-1.6-5.5-2.6-8.4-1.8-1.6.5-4.1.7-5.5.5-1.4-.3-4.8-.7-7.6-1.1-2.7-.3-5.1-.8-5.3-1-.2-.2-.2-1.6 0-3.2l.3-2.9 12 1.8c14.8 2.2 39.1 3.1 46.5 1.7 3-.6 6.9-1.9 8.7-3 4.4-2.7 5.3-6 3.6-13.4-2.9-12.8-4.2-19.2-4.8-23-.9-5.2-1.3-8-3.1-19.5-.8-5.2-1.7-11.1-2-13-1.3-8.3-5.7-25.7-8.8-35.2-7.3-22.3-14.7-35.4-26-46.2-4.9-4.6-19.9-12-27.7-13.5-6-1.3-12.6-2-13.1-1.6zm-50.3 70.8c-.7 5.6-1.4 10.8-2 13.6-.2 1.2-.7 6.5-1.1 11.6-1 14.1 2.3 25 10.3 34.5 2 2.5 2.8 3.7 1.7 2.7-3-2.5-3.7-2.1-1.7 1 1.1 1.9.4 1.4-2-1.2-4-4.4-9.1-14.1-10.4-19.5-1.3-5.8-.4-29.3 1.2-32 .2-.3.6-2.8.9-5.5.4-2.8.9-5.9 1.1-7 .2-1.1.4-2.4.4-2.8.1-.5.6-.5 1.1-.2.6.3.8 2.5.5 4.8zm95 42.7c-2.1.7-5.5.2-5.5-.9 0-.4 1.7-.5 3.8-.3 2.9.4 3.3.6 1.7 1.2zm-83.4 24.7c1.3 1.6 1.2 1.7-.3.4-1-.7-1.8-1.5-1.8-1.7 0-.8.8-.3 2.1 1.3zm101.4 94.8c14.2 7.7 31.5 17.6 31.5 18.1 0 .3-.6 1.1-1.2 1.8-.7.7-4.2 4.6-7.8 8.6-3.6 4.1-6.9 7.8-7.5 8.4-.5.6-4.6 5.1-9 10-6.8 7.5-22 20.6-24 20.6-.3 0-1.3-1.7-2.2-3.8-2.3-5.4-2-20.3.6-32.2 2.3-10.1 5.8-21.8 7.1-23.5.9-1 2.3-7.4 2.8-12.4.2-.9.6-1 1.5-.4.6.6 4.4 2.7 8.2 4.8zM141.7 403.6c-.3.3-1.2.4-1.9.1-.8-.3-.5-.6.6-.6 1.1-.1 1.7.2 1.3.5zm-7.6 2c-2.4.7-5.3 2.2-6.5 3.1l-2.1 1.8 1.9-2.3c1.8-2.1 6.4-4 9.6-4 .8 0-.5.6-2.9 1.4zm367.4 242.6c-1.8 6-5.4 8.5-10.6 7.5-2-.3-1.8-.5.7-.6 4.2-.1 9.1-4.9 8.5-8.4 0-.4.4-.7 1-.7s.8.9.4 2.2z"/></svg>